<?xml version="1.0" standalone="no"?>
<!DOCTYPE svg PUBLIC "-//W3C//DTD SVG 20010904//EN"
 "http://www.w3.org/TR/2001/REC-SVG-20010904/DTD/svg10.dtd">
<svg version="1.0" xmlns="http://www.w3.org/2000/svg"
 width="320.000000pt" height="320.000000pt" viewBox="0 0 320.000000 320.000000"
 preserveAspectRatio="xMidYMid meet">
<metadata>
Created by potrace 1.14, written by Peter Selinger 2001-2017
</metadata>
<g transform="translate(0.000000,320.000000) scale(0.100000,-0.100000)"
fill="#000000" stroke="none">
<path d="M693 2961 c-194 -49 -398 -193 -504 -357 -24 -36 -91 -161 -94 -174
-1 -3 -7 -23 -13 -45 -51 -174 -55 -296 -17 -480 14 -66 28 -128 30 -137 3
-10 7 -26 9 -35 17 -75 142 -339 217 -459 207 -332 531 -661 883 -898 130 -88
366 -206 411 -206 44 0 277 117 410 205 80 54 262 190 285 215 3 3 45 41 93
84 135 121 295 300 407 456 22 30 43 60 48 65 4 6 28 44 54 85 88 143 179 336
209 440 7 25 14 50 15 55 2 6 15 64 28 130 39 184 35 306 -16 480 -6 22 -12
42 -13 45 -3 13 -70 138 -94 174 -80 124 -205 229 -356 301 -134 64 -214 78
-403 72 -201 -6 -296 -35 -446 -135 -68 -45 -206 -174 -206 -193 0 -5 -7 -9
-15 -9 -8 0 -15 4 -15 9 0 19 -138 148 -206 193 -76 51 -135 79 -229 110 -89
30 -370 35 -472 9z"/>
</g>
</svg>
